<?xml version="1.0" encoding="UTF-8"?>
<svg xmlns="http://www.w3.org/2000/svg" xmlns:xlink="http://www.w3.org/1999/xlink" viewBox="0 0 1641.51 298.22">
  <defs>
    <style>
      .cls-1 {
        fill: #fff;
      }

      .cls-2 {
        fill: #1e85ff;
        font-family: Montserrat-Bold, Montserrat;
        font-size: 265.53px;
        font-weight: 700;
      }

      .cls-3 {
        isolation: isolate;
      }

      .cls-4 {
        filter: url(#drop-shadow-1);
      }

      .cls-5 {
        fill: #e8d3ac;
        mix-blend-mode: multiply;
      }

      .cls-6 {
        fill: #fff200;
      }

      .cls-7 {
        fill: #1c75bc;
      }
    </style>
    <filter id="drop-shadow-1" filterUnits="userSpaceOnUse">
      <feOffset dx="0" dy="8.09"/>
      <feGaussianBlur result="blur" stdDeviation="8.09"/>
      <feFlood flood-color="#1e85ff" flood-opacity=".4"/>
      <feComposite in2="blur" operator="in"/>
      <feComposite in="SourceGraphic"/>
    </filter>
  </defs>
  <g class="cls-3">
    <g id="Layer_1" data-name="Layer 1">
      <text class="cls-2" transform="translate(0 225.7)"><tspan x="0" y="0" xml:space="preserve">TechL   cate</tspan></text>
      <g>
        <path class="cls-6" d="m1036.08,111.61c0-79.93-53.51-108.77-106.37-108.77s-106.37,28.84-106.37,108.77c-.97,50.44,87.02,162.93,106.37,186.61,19.35-23.68,107.34-136.17,106.37-186.61Zm-106.37,60.57c-35.32,0-63.95-28.63-63.95-63.96s28.63-63.96,63.95-63.96,63.95,28.64,63.95,63.96-28.63,63.96-63.95,63.96Z"/>
        <path class="cls-1" d="m1004.96,108.23c0,41.56-33.69,75.25-75.25,75.25s-75.25-33.69-75.25-75.25,33.69-75.27,75.25-75.27,75.25,33.7,75.25,75.27Z"/>
        <path class="cls-5" d="m1036.08,111.61c0-79.93-53.51-108.77-106.37-108.77v41.43c35.32,0,63.95,28.64,63.95,63.96s-28.63,63.96-63.95,63.96v126.03c19.35-23.68,107.34-136.17,106.37-186.61Z"/>
      </g>
      <g class="cls-4">
        <polygon class="cls-7" points="902.78 77.9 867.75 108.23 902.78 138.56 902.78 122.12 886.73 108.23 902.78 94.33 902.78 77.9"/>
        <polygon class="cls-7" points="956.64 138.56 991.67 108.23 956.64 77.9 956.64 94.33 972.68 108.23 956.64 122.12 956.64 138.56"/>
        <polygon class="cls-7" points="926.32 148.45 911.49 148.45 933.1 68 947.93 68 926.32 148.45"/>
      </g>
    </g>
  </g>
</svg>